<mxfile host="app.diagrams.net" modified="2021-05-13T06:18:19.335Z" agent="5.0 (Windows NT 10.0; Win64; x64) AppleWebKit/537.36 (KHTML, like Gecko) Chrome/90.0.4430.93 Safari/537.36 Edg/90.0.818.56" etag="RuAX99aG8x_ddb1FRfQU" version="14.6.6" type="github">
  <diagram id="WnBnKjxU7TETCAQ9rnnJ" name="Page-1">
    <mxGraphModel dx="1483" dy="897" grid="1" gridSize="10" guides="1" tooltips="1" connect="1" arrows="1" fold="1" page="1" pageScale="1" pageWidth="1654" pageHeight="2336" math="0" shadow="0">
      <root>
        <mxCell id="0" />
        <mxCell id="1" parent="0" />
        <mxCell id="YNCN7UYWApxEbOBbfjzn-13" style="edgeStyle=orthogonalEdgeStyle;rounded=0;orthogonalLoop=1;jettySize=auto;html=1;exitX=1;exitY=0.5;exitDx=0;exitDy=0;entryX=0;entryY=0.5;entryDx=0;entryDy=0;" edge="1" parent="1" source="YNCN7UYWApxEbOBbfjzn-1" target="YNCN7UYWApxEbOBbfjzn-5">
          <mxGeometry relative="1" as="geometry" />
        </mxCell>
        <mxCell id="YNCN7UYWApxEbOBbfjzn-14" style="edgeStyle=orthogonalEdgeStyle;rounded=0;orthogonalLoop=1;jettySize=auto;html=1;exitX=1;exitY=0.5;exitDx=0;exitDy=0;entryX=0;entryY=0.5;entryDx=0;entryDy=0;" edge="1" parent="1" source="YNCN7UYWApxEbOBbfjzn-1" target="YNCN7UYWApxEbOBbfjzn-7">
          <mxGeometry relative="1" as="geometry" />
        </mxCell>
        <mxCell id="YNCN7UYWApxEbOBbfjzn-15" style="edgeStyle=orthogonalEdgeStyle;rounded=0;orthogonalLoop=1;jettySize=auto;html=1;exitX=1;exitY=0.5;exitDx=0;exitDy=0;entryX=0;entryY=0.5;entryDx=0;entryDy=0;" edge="1" parent="1" source="YNCN7UYWApxEbOBbfjzn-1" target="YNCN7UYWApxEbOBbfjzn-8">
          <mxGeometry relative="1" as="geometry" />
        </mxCell>
        <mxCell id="YNCN7UYWApxEbOBbfjzn-16" style="edgeStyle=orthogonalEdgeStyle;rounded=0;orthogonalLoop=1;jettySize=auto;html=1;exitX=1;exitY=0.5;exitDx=0;exitDy=0;entryX=0;entryY=0.5;entryDx=0;entryDy=0;" edge="1" parent="1" source="YNCN7UYWApxEbOBbfjzn-1" target="YNCN7UYWApxEbOBbfjzn-9">
          <mxGeometry relative="1" as="geometry" />
        </mxCell>
        <mxCell id="YNCN7UYWApxEbOBbfjzn-17" style="edgeStyle=orthogonalEdgeStyle;rounded=0;orthogonalLoop=1;jettySize=auto;html=1;exitX=1;exitY=0.5;exitDx=0;exitDy=0;entryX=0;entryY=0.5;entryDx=0;entryDy=0;" edge="1" parent="1" source="YNCN7UYWApxEbOBbfjzn-1" target="YNCN7UYWApxEbOBbfjzn-10">
          <mxGeometry relative="1" as="geometry">
            <mxPoint x="230" y="460" as="targetPoint" />
          </mxGeometry>
        </mxCell>
        <mxCell id="YNCN7UYWApxEbOBbfjzn-18" style="edgeStyle=orthogonalEdgeStyle;rounded=0;orthogonalLoop=1;jettySize=auto;html=1;exitX=1;exitY=0.5;exitDx=0;exitDy=0;entryX=0;entryY=0.5;entryDx=0;entryDy=0;" edge="1" parent="1" source="YNCN7UYWApxEbOBbfjzn-1" target="YNCN7UYWApxEbOBbfjzn-11">
          <mxGeometry relative="1" as="geometry" />
        </mxCell>
        <mxCell id="YNCN7UYWApxEbOBbfjzn-1" value="计算机体系结构" style="rounded=0;whiteSpace=wrap;html=1;fillColor=#dae8fc;strokeColor=#6c8ebf;" vertex="1" parent="1">
          <mxGeometry x="40" y="360" width="120" height="40" as="geometry" />
        </mxCell>
        <mxCell id="YNCN7UYWApxEbOBbfjzn-5" value="基本概念" style="rounded=0;whiteSpace=wrap;html=1;fillColor=#d5e8d4;strokeColor=#82b366;" vertex="1" parent="1">
          <mxGeometry x="280" y="160" width="120" height="40" as="geometry" />
        </mxCell>
        <mxCell id="YNCN7UYWApxEbOBbfjzn-7" value="指令集" style="rounded=0;whiteSpace=wrap;html=1;fillColor=#d5e8d4;strokeColor=#82b366;" vertex="1" parent="1">
          <mxGeometry x="280" y="240" width="120" height="40" as="geometry" />
        </mxCell>
        <mxCell id="YNCN7UYWApxEbOBbfjzn-8" value="流水线" style="rounded=0;whiteSpace=wrap;html=1;fillColor=#d5e8d4;strokeColor=#82b366;" vertex="1" parent="1">
          <mxGeometry x="280" y="320" width="120" height="40" as="geometry" />
        </mxCell>
        <mxCell id="YNCN7UYWApxEbOBbfjzn-9" value="指令级并行" style="rounded=0;whiteSpace=wrap;html=1;fillColor=#d5e8d4;strokeColor=#82b366;" vertex="1" parent="1">
          <mxGeometry x="280" y="400" width="120" height="40" as="geometry" />
        </mxCell>
        <mxCell id="YNCN7UYWApxEbOBbfjzn-10" value="存储系统" style="rounded=0;whiteSpace=wrap;html=1;fillColor=#d5e8d4;strokeColor=#82b366;" vertex="1" parent="1">
          <mxGeometry x="280" y="480" width="120" height="40" as="geometry" />
        </mxCell>
        <mxCell id="YNCN7UYWApxEbOBbfjzn-11" value="输入输出" style="rounded=0;whiteSpace=wrap;html=1;fillColor=#d5e8d4;strokeColor=#82b366;" vertex="1" parent="1">
          <mxGeometry x="280" y="560" width="120" height="40" as="geometry" />
        </mxCell>
      </root>
    </mxGraphModel>
  </diagram>
</mxfile>
